<svg xmlns="http://www.w3.org/2000/svg" version="1.1" xmlns:xlink="http://www.w3.org/1999/xlink" xmlns:svgjs="http://svgjs.dev/svgjs" width="2000" height="414" viewBox="0 0 2000 414"><g transform="matrix(1,0,0,1,-1.208982165073735,2.9644370883326303)"><svg viewBox="0 0 396 82" data-background-color="#33352f" preserveAspectRatio="xMidYMid meet" height="414" width="2000" xmlns="http://www.w3.org/2000/svg" xmlns:xlink="http://www.w3.org/1999/xlink"><g id="tight-bounds" transform="matrix(1,0,0,1,0.2393784686846061,0.25650236755191713)"><svg viewBox="0 0 395.52 81.48666590376956" height="81.48666590376956" width="395.52"><g><svg viewBox="0 0 601.3236661348515 123.88718821389692" height="81.48666590376956" width="395.52"><g><rect width="7.250039006042257" height="121.74543762952868" x="414.49915970168126" y="1.0708752921841196" fill="#000000" opacity="1" stroke-width="0" stroke="transparent" fill-opacity="1" class="rect-yte-0" data-fill-palette-color="primary" rx="1%" id="yte-0" data-palette-color="#fff6db"></rect></g><g transform="matrix(1,0,0,1,0,1.3737246395212495)"><svg viewBox="0 0 395.52 121.13973893485442" height="121.13973893485442" width="395.52"><g id="textblocktransform"><svg viewBox="0 0 395.52 121.13973893485442" height="121.13973893485442" width="395.52" id="textblock"><g><svg viewBox="0 0 395.52 80.39427854454202" height="80.39427854454202" width="395.52"><g transform="matrix(1,0,0,1,0,0)"><svg width="395.52" viewBox="0.5 -37 241.33 48.6" height="80.39427854454202" data-palette-color="#fff6db"><g class="wordmark-text-0" data-fill-palette-color="primary" id="text-0"><path d="M13.1 0.6L13.1 0.6Q9.35 0.6 7.18-1.88 5-4.35 5-8.95L5-8.95 5-21.15 0.5-21.15 0.5-25.05 5.1-25.05 6.05-33.25 9.5-33.25 9.5-25.05 16.7-25.05 16.7-21.15 9.5-21.15 9.5-8.6Q9.5-5.7 10.73-4.55 11.95-3.4 13.65-3.4L13.65-3.4Q14.9-3.4 16.03-3.8 17.15-4.2 18.1-4.75L18.1-4.75 19.35-1.15Q18.35-0.55 16.65 0.03 14.95 0.6 13.1 0.6ZM28.35 0L23.85 0 23.85-26 28.35-26 28.35 0ZM26.1-30.45L26.1-30.45Q24.8-30.45 23.87-31.4 22.95-32.35 22.95-33.6L22.95-33.6Q22.95-35.05 23.8-35.9 24.65-36.75 26.1-36.75L26.1-36.75Q27.4-36.75 28.32-35.83 29.25-34.9 29.25-33.6L29.25-33.6Q29.25-32.2 28.4-31.33 27.55-30.45 26.1-30.45ZM40.84 0L36.34 0 36.34-26 40.7-26 40.7-21.65Q42.09-23.75 44.24-25.18 46.39-26.6 49.14-26.6L49.14-26.6Q52.25-26.6 54.22-25.1 56.2-23.6 57-21.1L57-21.1Q58.55-23.4 60.67-25 62.8-26.6 65.94-26.6L65.94-26.6Q70.19-26.6 72.27-23.93 74.34-21.25 74.34-16.95L74.34-16.95 74.34 0 69.84 0 69.84-16.6Q69.84-19.3 68.59-20.98 67.34-22.65 65.15-22.65L65.15-22.65Q62.89-22.65 60.97-20.98 59.05-19.3 57.59-17.05L57.59-17.05 57.59 0 53.09 0 53.09-16.6Q53.09-19.3 51.84-20.98 50.59-22.65 48.39-22.65L48.39-22.65Q46.2-22.65 44.24-21.03 42.3-19.4 40.84-17.2L40.84-17.2 40.84 0ZM92.49 0.6L92.49 0.6Q86.89 0.6 83.62-2.98 80.34-6.55 80.34-13L80.34-13Q80.34-16.9 81.82-19.98 83.29-23.05 85.94-24.83 88.59-26.6 92.09-26.6L92.09-26.6Q95.84-26.6 98.32-24.98 100.79-23.35 102.04-20.6 103.29-17.85 103.29-14.55L103.29-14.55Q103.29-12.8 103.14-11.15L103.14-11.15 84.94-11.15Q85.39-7.5 87.49-5.45 89.59-3.4 93.04-3.4L93.04-3.4Q95.29-3.4 97.09-3.88 98.89-4.35 100.54-5.1L100.54-5.1 101.59-1.25Q99.79-0.45 97.54 0.08 95.29 0.6 92.49 0.6ZM84.89-14.8L84.89-14.8 99.14-14.8Q99.14-18.6 97.24-20.65 95.34-22.7 91.99-22.7L91.99-22.7Q89.09-22.7 87.19-20.68 85.29-18.65 84.89-14.8ZM118.84 11.6L118.84 11.6Q116.54 11.6 114.37 11.05 112.19 10.5 110.49 9.4L110.49 9.4 112.14 5.5Q113.34 6.45 114.94 7.08 116.54 7.7 118.84 7.7L118.84 7.7Q122.39 7.7 124.42 5.83 126.44 3.95 126.44-0.15L126.44-0.15 126.44-3.35Q125.44-2.15 123.57-1.07 121.69 0 119.09 0L119.09 0Q116.14 0 113.49-1.53 110.84-3.05 109.19-6 107.54-8.95 107.54-13.1L107.54-13.1Q107.54-17 109.17-20.05 110.79-23.1 113.54-24.85 116.29-26.6 119.59-26.6L119.59-26.6Q121.79-26.6 123.59-25.85 125.39-25.1 126.69-24L126.69-24 126.69-26 130.79-26 130.79-0.6Q130.79 3.7 129.29 6.4 127.79 9.1 125.12 10.35 122.44 11.6 118.84 11.6ZM120.09-4L120.09-4Q122.09-4 123.69-4.9 125.29-5.8 126.29-7L126.29-7 126.29-20.6Q125.19-21.4 123.64-22.05 122.09-22.7 120.04-22.7L120.04-22.7Q117.99-22.7 116.19-21.6 114.39-20.5 113.27-18.43 112.14-16.35 112.14-13.35L112.14-13.35Q112.14-10.5 113.27-8.4 114.39-6.3 116.19-5.15 117.99-4 120.09-4ZM143.04 0L138.54 0 138.54-26 142.89-26 142.89-20.35Q143.54-22 144.64-23.43 145.74-24.85 147.39-25.73 149.04-26.6 151.24-26.6L151.24-26.6Q151.99-26.6 152.74-26.53 153.49-26.45 153.99-26.3L153.99-26.3 152.64-21.65Q151.69-22.05 150.39-22.05L150.39-22.05Q148.54-22.05 146.86-21 145.19-19.95 144.11-17.75 143.04-15.55 143.04-12.15L143.04-12.15 143.04 0ZM168.44 0.6L168.44 0.6Q165.19 0.6 162.54-1.05 159.89-2.7 158.31-5.73 156.74-8.75 156.74-12.85L156.74-12.85Q156.74-16.75 158.31-19.85 159.89-22.95 162.66-24.78 165.44-26.6 169.04-26.6L169.04-26.6Q171.29-26.6 173.11-25.83 174.94-25.05 176.29-23.9L176.29-23.9 176.29-26 180.39-26 180.39-6.3Q180.39-4.4 181.31-3.83 182.24-3.25 183.34-3.25L183.34-3.25 182.39 0.25Q177.59 0.25 176.59-3.65L176.59-3.65Q175.44-2.05 173.46-0.73 171.49 0.6 168.44 0.6ZM169.44-3.4L169.44-3.4Q171.34-3.4 173.04-4.33 174.74-5.25 175.89-6.65L175.89-6.65 175.89-20.6Q174.54-21.55 172.91-22.13 171.29-22.7 169.49-22.7L169.49-22.7Q167.09-22.7 165.26-21.48 163.44-20.25 162.39-18.07 161.34-15.9 161.34-13L161.34-13Q161.34-10.2 162.39-8.03 163.44-5.85 165.29-4.63 167.14-3.4 169.44-3.4ZM194.78 11L190.28 11 190.28-19.35Q190.28-21.05 189.46-21.78 188.63-22.5 187.33-22.5L187.33-22.5 188.28-26Q192.88-26 194.03-22.35L194.03-22.35Q194.53-23.1 195.66-24.1 196.78-25.1 198.46-25.85 200.13-26.6 202.28-26.6L202.28-26.6Q205.28-26.6 207.91-25.03 210.53-23.45 212.13-20.48 213.73-17.5 213.73-13.25L213.73-13.25Q213.73-9.1 212.13-5.98 210.53-2.85 207.96-1.13 205.38 0.6 202.38 0.6L202.38 0.6Q200.08 0.6 198.08-0.33 196.08-1.25 194.78-2.45L194.78-2.45 194.78 11ZM201.48-3.4L201.48-3.4Q204.88-3.4 207.01-6.08 209.13-8.75 209.13-13.1L209.13-13.1Q209.13-16.1 208.06-18.25 206.98-20.4 205.21-21.55 203.43-22.7 201.28-22.7L201.28-22.7Q199.13-22.7 197.41-21.63 195.68-20.55 194.78-19.3L194.78-19.3 194.78-6.5Q196.08-5.15 197.78-4.28 199.48-3.4 201.48-3.4ZM224.48 0L219.98 0 219.98-37 224.48-37 224.48-21.85Q225.88-23.9 228.03-25.25 230.18-26.6 233.08-26.6L233.08-26.6Q237.48-26.6 239.66-23.95 241.83-21.3 241.83-16.95L241.83-16.95 241.83 0 237.33 0 237.33-16.45Q237.33-19.25 236.03-20.95 234.73-22.65 232.38-22.65L232.38-22.65Q230.08-22.65 228.01-21.03 225.93-19.4 224.48-17.2L224.48-17.2 224.48 0Z" fill="#000000" data-fill-palette-color="primary"></path></g></svg></g></svg></g><g transform="matrix(1,0,0,1,163.310208,99.37343824622332)"><svg viewBox="0 0 232.209792 21.766300688631095" height="21.766300688631095" width="232.209792"><g transform="matrix(1,0,0,1,0,0)"><svg width="232.209792" viewBox="0.35 -39.65 538.68 50.5" height="21.766300688631095" data-palette-color="#fff6db"><path d="M11.75-35.25Q14.75-35.25 17.05-34.2 19.35-33.15 21.3-31.05L21.3-31.05 18.35-27.65Q16.8-29.05 15.33-29.75 13.85-30.45 12.2-30.45L12.2-30.45Q10.3-30.45 9.2-29.28 8.1-28.1 8.1-26.2L8.1-26.2Q8.1-24.3 9.25-23.1 10.4-21.9 13.75-20.6L13.75-20.6Q18.05-18.85 20.08-16.5 22.1-14.15 22.1-9.85L22.1-9.85Q22.1-6.9 20.75-4.48 19.4-2.05 16.88-0.65 14.35 0.75 11 0.75L11 0.75Q7.55 0.75 5-0.48 2.45-1.7 0.35-3.95L0.35-3.95 3.55-7.45Q5.35-5.85 7-5 8.65-4.15 10.6-4.15L10.6-4.15Q12.9-4.15 14.18-5.58 15.45-7 15.45-9.45L15.45-9.45Q15.45-11.6 14.33-12.98 13.2-14.35 10.15-15.5L10.15-15.5Q5.55-17.35 3.53-19.75 1.5-22.15 1.5-25.75L1.5-25.75Q1.5-28.5 2.83-30.65 4.15-32.8 6.5-34.02 8.85-35.25 11.75-35.25L11.75-35.25ZM43-6.4Q43-5.1 43.35-4.48 43.7-3.85 44.5-3.45L44.5-3.45 43.25 0.65Q41.2 0.4 39.97-0.45 38.75-1.3 38.15-3.05L38.15-3.05Q35.85 0.75 31.7 0.75L31.7 0.75Q28.4 0.75 26.45-1.48 24.5-3.7 24.5-7.4L24.5-7.4Q24.5-11.7 27.17-13.95 29.85-16.2 34.95-16.2L34.95-16.2 37-16.2 37-18.05Q37-20.55 36.12-21.58 35.25-22.6 33.3-22.6L33.3-22.6Q30.95-22.6 27.45-21.3L27.45-21.3 26.05-25.3Q28.05-26.2 30.2-26.68 32.35-27.15 34.3-27.15L34.3-27.15Q43-27.15 43-18.35L43-18.35 43-6.4ZM33.35-3.7Q35.75-3.7 37-7L37-7 37-12.55 35.55-12.55Q33-12.55 31.82-11.4 30.65-10.25 30.65-7.85L30.65-7.85Q30.65-5.8 31.35-4.75 32.05-3.7 33.35-3.7L33.35-3.7ZM61.2-26.45L67.25-26.45 60.35 0 53.1 0 46-26.45 52.35-26.45 56.7-4.95 61.2-26.45ZM88.99-13.85Q88.99-13.4 88.84-11.3L88.84-11.3 75.19-11.3Q75.39-7.2 76.62-5.58 77.84-3.95 80.09-3.95L80.09-3.95Q81.64-3.95 82.89-4.48 84.14-5 85.59-6.15L85.59-6.15 88.14-2.65Q84.64 0.75 79.74 0.75L79.74 0.75Q74.54 0.75 71.77-2.85 68.99-6.45 68.99-13L68.99-13Q68.99-19.55 71.64-23.35 74.29-27.15 79.14-27.15L79.14-27.15Q83.79-27.15 86.39-23.78 88.99-20.4 88.99-13.85L88.99-13.85ZM82.99-15.3L82.99-15.65Q82.99-19.4 82.09-21.13 81.19-22.85 79.19-22.85L79.19-22.85Q77.34-22.85 76.37-21.18 75.39-19.5 75.19-15.3L75.19-15.3 82.99-15.3ZM114.29-5L116.44-1.2Q113.99 0.75 110.69 0.75L110.69 0.75Q107.24 0.75 105.44-1.23 103.64-3.2 103.64-6.6L103.64-6.6 103.64-22 100.54-22 100.54-26.45 103.64-26.45 103.64-32.3 109.79-33.05 109.79-26.45 114.79-26.45 114.19-22 109.79-22 109.79-6.6Q109.79-4.2 111.84-4.2L111.84-4.2Q112.49-4.2 112.99-4.38 113.49-4.55 114.29-5L114.29-5ZM118.99-26.45L125.14-26.45 125.14 0 118.99 0 118.99-26.45ZM122.04-39.65Q123.69-39.65 124.71-38.6 125.74-37.55 125.74-35.9L125.74-35.9Q125.74-34.3 124.71-33.25 123.69-32.2 122.04-32.2L122.04-32.2Q120.39-32.2 119.36-33.25 118.34-34.3 118.34-35.9L118.34-35.9Q118.34-37.55 119.36-38.6 120.39-39.65 122.04-39.65L122.04-39.65ZM154.48-27.15Q157.13-27.15 158.73-25.1 160.33-23.05 160.33-19.6L160.33-19.6 160.33 0 154.28 0 154.28-18.95Q154.28-20.85 153.78-21.68 153.28-22.5 152.33-22.5L152.33-22.5Q150.38-22.5 148.58-18.8L148.58-18.8 148.58 0 142.58 0 142.58-18.95Q142.58-22.5 140.68-22.5L140.68-22.5Q138.63-22.5 136.88-18.8L136.88-18.8 136.88 0 130.83 0 130.83-26.45 136.18-26.45 136.58-23.05Q139.18-27.15 142.83-27.15L142.83-27.15Q144.68-27.15 146.03-26 147.38-24.85 148.08-22.75L148.08-22.75Q150.73-27.15 154.48-27.15L154.48-27.15ZM184.68-13.85Q184.68-13.4 184.53-11.3L184.53-11.3 170.88-11.3Q171.08-7.2 172.31-5.58 173.53-3.95 175.78-3.95L175.78-3.95Q177.33-3.95 178.58-4.48 179.83-5 181.28-6.15L181.28-6.15 183.83-2.65Q180.33 0.75 175.43 0.75L175.43 0.75Q170.23 0.75 167.46-2.85 164.68-6.45 164.68-13L164.68-13Q164.68-19.55 167.33-23.35 169.98-27.15 174.83-27.15L174.83-27.15Q179.48-27.15 182.08-23.78 184.68-20.4 184.68-13.85L184.68-13.85ZM178.68-15.3L178.68-15.65Q178.68-19.4 177.78-21.13 176.88-22.85 174.88-22.85L174.88-22.85Q173.03-22.85 172.06-21.18 171.08-19.5 170.88-15.3L170.88-15.3 178.68-15.3ZM191.38-7.05Q192.98-7.05 194-5.98 195.03-4.9 195.03-3.25L195.03-3.25Q195.03-2.55 194.8-1.78 194.58-1 194.23-0.08 193.88 0.85 193.78 1.2L193.78 1.2 191.13 8.55 187.68 8.55 189.48 0.1Q187.68-1.2 187.68-3.2L187.68-3.2Q187.68-4.85 188.73-5.95 189.78-7.05 191.38-7.05L191.38-7.05ZM221.42-27.15Q225.27-27.15 227.32-23.65 229.37-20.15 229.37-13.25L229.37-13.25Q229.37-6.75 227.07-3 224.77 0.75 220.77 0.75L220.77 0.75Q219.02 0.75 217.57-0.13 216.12-1 215.07-2.55L215.07-2.55 214.72 0 209.27 0 209.27-37 215.42-37.65 215.42-23.6Q216.47-25.3 218-26.23 219.52-27.15 221.42-27.15L221.42-27.15ZM219.12-3.9Q220.97-3.9 222-6 223.02-8.1 223.02-13.25L223.02-13.25Q223.02-18.6 222.1-20.58 221.17-22.55 219.47-22.55L219.47-22.55Q218.32-22.55 217.27-21.6 216.22-20.65 215.42-19.1L215.42-19.1 215.42-6.7Q216.07-5.45 217.05-4.67 218.02-3.9 219.12-3.9L219.12-3.9ZM252.12-26.45L252.12 0 246.77 0 246.47-3.35Q245.22-1.3 243.67-0.28 242.12 0.75 240.07 0.75L240.07 0.75Q237.17 0.75 235.5-1.3 233.82-3.35 233.82-6.65L233.82-6.65 233.82-26.45 239.97-26.45 239.97-7Q239.97-3.9 242.07-3.9L242.07-3.9Q243.27-3.9 244.22-4.83 245.17-5.75 245.97-7.45L245.97-7.45 245.97-26.45 252.12-26.45ZM257.82-26.45L263.97-26.45 263.97 0 257.82 0 257.82-26.45ZM260.87-39.65Q262.52-39.65 263.54-38.6 264.57-37.55 264.57-35.9L264.57-35.9Q264.57-34.3 263.54-33.25 262.52-32.2 260.87-32.2L260.87-32.2Q259.22-32.2 258.19-33.25 257.17-34.3 257.17-35.9L257.17-35.9Q257.17-37.55 258.19-38.6 259.22-39.65 260.87-39.65L260.87-39.65ZM275.26 0.75Q272.56 0.75 270.99-0.93 269.42-2.6 269.42-5.4L269.42-5.4 269.42-37.05 275.56-37.7 275.56-5.65Q275.56-5 275.87-4.6 276.17-4.2 276.76-4.2L276.76-4.2Q277.12-4.2 277.44-4.3 277.76-4.4 277.87-4.4L277.87-4.4 279.06-0.2Q277.37 0.75 275.26 0.75L275.26 0.75ZM295.06-37.7L301.21-37.05 301.21 0 295.76 0 295.46-3.05Q293.11 0.75 289.41 0.75L289.41 0.75Q285.31 0.75 283.14-2.93 280.96-6.6 280.96-13.2L280.96-13.2Q280.96-17.4 282.09-20.58 283.21-23.75 285.21-25.45 287.21-27.15 289.81-27.15L289.81-27.15Q293.01-27.15 295.06-24.5L295.06-24.5 295.06-37.7ZM291.16-3.9Q292.31-3.9 293.24-4.7 294.16-5.5 295.06-7L295.06-7 295.06-19.85Q293.46-22.55 291.41-22.55L291.41-22.55Q287.36-22.55 287.36-13.25L287.36-13.25Q287.36-8.2 288.36-6.05 289.36-3.9 291.16-3.9L291.16-3.9ZM327.91-5L330.06-1.2Q327.61 0.75 324.31 0.75L324.31 0.75Q320.86 0.75 319.06-1.23 317.26-3.2 317.26-6.6L317.26-6.6 317.26-22 314.16-22 314.16-26.45 317.26-26.45 317.26-32.3 323.41-33.05 323.41-26.45 328.41-26.45 327.81-22 323.41-22 323.41-6.6Q323.41-4.2 325.46-4.2L325.46-4.2Q326.11-4.2 326.61-4.38 327.11-4.55 327.91-5L327.91-5ZM332.61-26.45L338.76-26.45 338.76 0 332.61 0 332.61-26.45ZM335.66-39.65Q337.31-39.65 338.33-38.6 339.36-37.55 339.36-35.9L339.36-35.9Q339.36-34.3 338.33-33.25 337.31-32.2 335.66-32.2L335.66-32.2Q334.01-32.2 332.98-33.25 331.96-34.3 331.96-35.9L331.96-35.9Q331.96-37.55 332.98-38.6 334.01-39.65 335.66-39.65L335.66-39.65ZM368.1-27.15Q370.75-27.15 372.35-25.1 373.95-23.05 373.95-19.6L373.95-19.6 373.95 0 367.9 0 367.9-18.95Q367.9-20.85 367.4-21.68 366.9-22.5 365.95-22.5L365.95-22.5Q364-22.5 362.2-18.8L362.2-18.8 362.2 0 356.2 0 356.2-18.95Q356.2-22.5 354.3-22.5L354.3-22.5Q352.25-22.5 350.5-18.8L350.5-18.8 350.5 0 344.45 0 344.45-26.45 349.8-26.45 350.2-23.05Q352.8-27.15 356.45-27.15L356.45-27.15Q358.3-27.15 359.65-26 361-24.85 361.7-22.75L361.7-22.75Q364.35-27.15 368.1-27.15L368.1-27.15ZM398.3-13.85Q398.3-13.4 398.15-11.3L398.15-11.3 384.5-11.3Q384.7-7.2 385.93-5.58 387.15-3.95 389.4-3.95L389.4-3.95Q390.95-3.95 392.2-4.48 393.45-5 394.9-6.15L394.9-6.15 397.45-2.65Q393.95 0.75 389.05 0.75L389.05 0.75Q383.85 0.75 381.08-2.85 378.3-6.45 378.3-13L378.3-13Q378.3-19.55 380.95-23.35 383.6-27.15 388.45-27.15L388.45-27.15Q393.1-27.15 395.7-23.78 398.3-20.4 398.3-13.85L398.3-13.85ZM392.3-15.3L392.3-15.65Q392.3-19.4 391.4-21.13 390.5-22.85 388.5-22.85L388.5-22.85Q386.65-22.85 385.68-21.18 384.7-19.5 384.5-15.3L384.5-15.3 392.3-15.3ZM420.55-29.85L422.1-25.1Q421.05-24.6 419.57-24.4 418.1-24.2 415.9-24.2L415.9-24.2Q418-23.2 419.02-21.53 420.05-19.85 420.05-17.4L420.05-17.4Q420.05-13.4 417.6-10.95 415.15-8.5 410.95-8.5L410.95-8.5Q409.7-8.5 408.4-8.9L408.4-8.9Q407.5-8.15 407.5-6.85L407.5-6.85Q407.5-5.85 408.05-5.35 408.6-4.85 410.1-4.85L410.1-4.85 412.9-4.85Q416.9-4.85 419.25-2.78 421.6-0.7 421.6 2.5L421.6 2.5Q421.6 6.3 418.67 8.58 415.75 10.85 410.35 10.85L410.35 10.85Q404.65 10.85 402.37 8.75 400.1 6.65 400.1 2.6L400.1 2.6 405.55 2.6Q405.55 4.75 406.55 5.65 407.55 6.55 410.4 6.55L410.4 6.55Q413.15 6.55 414.3 5.6 415.45 4.65 415.45 2.9L415.45 2.9Q415.45 1.2 414.5 0.4 413.55-0.4 411.55-0.4L411.55-0.4 409.65-0.4Q405.85-0.4 404.1-1.75 402.35-3.1 402.35-5.45L402.35-5.45Q402.35-6.8 403.07-8.03 403.8-9.25 405.05-10.2L405.05-10.2Q403-11.5 402.05-13.3 401.1-15.1 401.1-17.7L401.1-17.7Q401.1-22.05 403.7-24.58 406.3-27.1 410.7-27.1L410.7-27.1Q413.95-27.1 416.07-27.8 418.2-28.5 420.55-29.85L420.55-29.85ZM410.7-23Q408.95-23 408.05-21.75 407.15-20.5 407.15-17.8L407.15-17.8Q407.15-15.25 408.05-13.88 408.95-12.5 410.65-12.5L410.65-12.5Q412.4-12.5 413.25-13.73 414.1-14.95 414.1-17.85L414.1-17.85Q414.1-20.55 413.27-21.78 412.45-23 410.7-23L410.7-23ZM436.5-27.1Q437.65-27.1 438.55-26.75L438.55-26.75 437.55-20.85Q436.55-21.1 435.7-21.1L435.7-21.1Q433.8-21.1 432.7-19.45 431.6-17.8 431-14.55L431-14.55 431 0 424.85 0 424.85-26.45 430.2-26.45 430.65-21.85Q432.5-27.1 436.5-27.1L436.5-27.1ZM458.29-6.4Q458.29-5.1 458.64-4.48 458.99-3.85 459.79-3.45L459.79-3.45 458.54 0.65Q456.49 0.4 455.27-0.45 454.04-1.3 453.44-3.05L453.44-3.05Q451.14 0.75 446.99 0.75L446.99 0.75Q443.69 0.75 441.74-1.48 439.79-3.7 439.79-7.4L439.79-7.4Q439.79-11.7 442.47-13.95 445.14-16.2 450.24-16.2L450.24-16.2 452.29-16.2 452.29-18.05Q452.29-20.55 451.42-21.58 450.54-22.6 448.59-22.6L448.59-22.6Q446.24-22.6 442.74-21.3L442.74-21.3 441.34-25.3Q443.34-26.2 445.49-26.68 447.64-27.15 449.59-27.15L449.59-27.15Q458.29-27.15 458.29-18.35L458.29-18.35 458.29-6.4ZM448.64-3.7Q451.04-3.7 452.29-7L452.29-7 452.29-12.55 450.84-12.55Q448.29-12.55 447.12-11.4 445.94-10.25 445.94-7.85L445.94-7.85Q445.94-5.8 446.64-4.75 447.34-3.7 448.64-3.7L448.64-3.7ZM476.29-27.15Q480.19-27.15 482.19-23.58 484.19-20 484.19-13.3L484.19-13.3Q484.19-6.8 481.92-3.03 479.64 0.75 475.59 0.75L475.59 0.75Q472.39 0.75 470.24-2.1L470.24-2.1 470.24 10.15 464.09 10.85 464.09-26.45 469.54-26.45 469.79-23.25Q471.09-25.25 472.69-26.2 474.29-27.15 476.29-27.15L476.29-27.15ZM473.94-3.95Q475.84-3.95 476.84-6.13 477.84-8.3 477.84-13.25L477.84-13.25Q477.84-18.45 476.99-20.5 476.14-22.55 474.34-22.55L474.34-22.55Q472.04-22.55 470.24-19.25L470.24-19.25 470.24-6.45Q471.84-3.95 473.94-3.95L473.94-3.95ZM501.14-27.15Q503.99-27.15 505.64-25.1 507.29-23.05 507.29-19.6L507.29-19.6 507.29 0 501.14 0 501.14-18.9Q501.14-20.8 500.61-21.63 500.09-22.45 499.09-22.45L499.09-22.45Q496.99-22.45 494.94-18.5L494.94-18.5 494.94 0 488.79 0 488.79-37 494.94-37.65 494.94-23.3Q496.19-25.25 497.66-26.2 499.14-27.15 501.14-27.15L501.14-27.15ZM520.19-27.15Q524.89-27.15 528.14-24.05L528.14-24.05 525.79-20.7Q524.39-21.7 523.14-22.2 521.89-22.7 520.59-22.7L520.59-22.7Q519.14-22.7 518.31-21.93 517.49-21.15 517.49-19.8L517.49-19.8Q517.49-18.45 518.41-17.63 519.34-16.8 522.14-15.7L522.14-15.7Q525.59-14.35 527.24-12.5 528.89-10.65 528.89-7.55L528.89-7.55Q528.89-3.7 526.19-1.48 523.49 0.75 519.34 0.75L519.34 0.75Q516.64 0.75 514.36-0.23 512.09-1.2 510.39-2.95L510.39-2.95 513.39-6.25Q516.19-3.8 519.09-3.8L519.09-3.8Q520.74-3.8 521.69-4.67 522.64-5.55 522.64-7.1L522.64-7.1Q522.64-8.25 522.24-8.97 521.84-9.7 520.84-10.33 519.84-10.95 517.84-11.7L517.84-11.7Q514.39-13.05 512.91-14.85 511.44-16.65 511.44-19.45L511.44-19.45Q511.44-22.8 513.81-24.98 516.19-27.15 520.19-27.15L520.19-27.15ZM535.23-7.05Q536.93-7.05 537.98-5.9 539.03-4.75 539.03-3.15L539.03-3.15Q539.03-1.55 537.98-0.4 536.93 0.75 535.23 0.75L535.23 0.75Q533.58 0.75 532.51-0.4 531.43-1.55 531.43-3.15L531.43-3.15Q531.43-4.75 532.51-5.9 533.58-7.05 535.23-7.05L535.23-7.05Z" opacity="1" transform="matrix(1,0,0,1,0,0)" fill="#000000" class="slogan-text-1" data-fill-palette-color="secondary" id="text-1"></path></svg></g></svg></g></svg></g></svg></g><g transform="matrix(1,0,0,1,440.7283584094048,0)"><svg viewBox="0 0 160.59530772544667 123.88718821389692" height="123.88718821389692" width="160.59530772544667"><g><svg xmlns="http://www.w3.org/2000/svg" xmlns:xlink="http://www.w3.org/1999/xlink" version="1.1" x="0" y="0" viewBox="0.042 15.842477780569629 99.9580000081637 77.11007087247475" enable-background="new 0 0 100 100" xml:space="preserve" id="icon-0" width="160.59530772544667" height="123.88718821389692" class="icon-icon-0" data-fill-palette-color="accent"><circle fill="#000000" cx="25.686" cy="77.131" r="1.2" data-fill-palette-color="accent"></circle><circle fill="#000000" cx="25.686" cy="81.173" r="1.2" data-fill-palette-color="accent"></circle><circle fill="#000000" cx="23.665" cy="75.109" r="1.2" data-fill-palette-color="accent"></circle><circle fill="#000000" cx="21.643" cy="77.131" r="1.2" data-fill-palette-color="accent"></circle><circle fill="#000000" cx="19.622" cy="83.194" r="1.2" data-fill-palette-color="accent"></circle><circle fill="#000000" cx="21.643" cy="81.173" r="1.2" data-fill-palette-color="accent"></circle><circle fill="#000000" cx="19.622" cy="79.152" r="1.2" data-fill-palette-color="accent"></circle><circle fill="#000000" cx="23.664" cy="79.152" r="1.2" data-fill-palette-color="accent"></circle><path fill="#000000" d="M31.553 67.264C31.551 67.227 31.546 67.191 31.542 67.154L31.538 67.119 31.52 67.013 31.514 66.977C31.507 66.942 31.498 66.908 31.49 66.874 31.487 66.862 31.485 66.849 31.481 66.837 31.473 66.806 31.463 66.776 31.453 66.745L31.439 66.7 31.407 66.617 31.388 66.567 31.354 66.491 31.33 66.437C31.319 66.414 31.306 66.392 31.294 66.369 31.284 66.35 31.274 66.33 31.263 66.312L31.226 66.252 31.188 66.191 31.151 66.139C31.136 66.118 31.121 66.096 31.105 66.076L31.067 66.029 31.015 65.965 30.976 65.923 30.917 65.86 30.879 65.824 30.813 65.762 30.774 65.73 30.701 65.67 30.661 65.641 30.582 65.585 30.542 65.56 30.466 65.512 30.458 65.508 30.454 65.505 16.887 57.75A2.19 2.19 0 0 0 14.714 57.75L1.145 65.505 1.138 65.51 1.133 65.513 1.089 65.54 1.013 65.587 0.967 65.619C0.943 65.636 0.918 65.653 0.895 65.671L0.852 65.706 0.784 65.762 0.743 65.8C0.722 65.82 0.7 65.84 0.68 65.861L0.642 65.901 0.583 65.965 0.548 66.008 0.493 66.075 0.461 66.12 0.411 66.191 0.382 66.237 0.336 66.311 0.31 66.359C0.296 66.385 0.282 66.41 0.269 66.437L0.247 66.486 0.21 66.567 0.19 66.619 0.159 66.7 0.143 66.753C0.134 66.781 0.125 66.808 0.118 66.836L0.105 66.89 0.085 66.975 0.075 67.035 0.061 67.117 0.054 67.19 0.047 67.261 0.043 67.372 0.042 67.407V82.999C0.042 83.784 0.463 84.51 1.144 84.9L14.713 92.663A2.19 2.19 0 0 0 16.9 92.657C16.928 92.641 16.955 92.623 16.982 92.606L30.457 84.897A2.19 2.19 0 0 0 31.559 82.996V67.41zM12.514 70.764H19.086L18.025 71.37H13.574zM21.562 69.349H10.04L8.98 68.743H22.624zM14.916 62.679H16.683L17.743 63.285H13.855zM11.379 64.7H20.217L21.278 65.306H10.319zM7.843 66.721H23.707V66.695L24.813 67.328H6.782zM4.421 71.181L13.61 76.437V86.985L4.421 81.727zM27.179 74.019A1.21 1.21 0 0 0 27.179 76.199V78.061A1.21 1.21 0 0 0 27.179 80.241V81.723L24.867 83.045A1.212 1.212 0 1 0 22.927 84.155L22.525 84.385A1.213 1.213 0 0 0 20.478 85.556L19.658 86.026 19.621 86.024C19.161 86.024 18.762 86.28 18.556 86.657L17.989 86.981V86.363A1.212 1.212 0 0 0 17.989 84.067V82.32A1.212 1.212 0 0 0 17.989 80.024V78.277A1.212 1.212 0 0 0 18.386 76.207L18.781 75.981A1.213 1.213 0 0 0 20.8 74.827L21.732 74.294C22.108 74.266 22.436 74.068 22.639 73.775L24.54 72.689A1.213 1.213 0 1 0 25.925 71.897L26.583 71.521C26.696 71.799 26.909 72.024 27.178 72.155z" data-fill-palette-color="accent"></path><circle fill="#000000" cx="58.026" cy="52.875" r="1.2" data-fill-palette-color="accent"></circle><circle fill="#000000" cx="60.047" cy="58.939" r="1.2" data-fill-palette-color="accent"></circle><circle fill="#000000" cx="58.026" cy="60.96" r="1.2" data-fill-palette-color="accent"></circle><circle fill="#000000" cx="58.026" cy="56.918" r="1.2" data-fill-palette-color="accent"></circle><circle fill="#000000" cx="60.047" cy="54.897" r="1.2" data-fill-palette-color="accent"></circle><circle fill="#000000" cx="60.047" cy="67.024" r="1.2" data-fill-palette-color="accent"></circle><circle fill="#000000" cx="58.026" cy="69.045" r="1.2" data-fill-palette-color="accent"></circle><circle fill="#000000" cx="58.026" cy="65.003" r="1.2" data-fill-palette-color="accent"></circle><circle fill="#000000" cx="60.047" cy="62.982" r="1.2" data-fill-palette-color="accent"></circle><circle fill="#000000" cx="60.047" cy="75.109" r="1.2" data-fill-palette-color="accent"></circle><circle fill="#000000" cx="58.026" cy="77.131" r="1.2" data-fill-palette-color="accent"></circle><circle fill="#000000" cx="58.026" cy="73.088" r="1.2" data-fill-palette-color="accent"></circle><circle fill="#000000" cx="60.047" cy="71.067" r="1.2" data-fill-palette-color="accent"></circle><circle fill="#000000" cx="58.026" cy="81.173" r="1.2" data-fill-palette-color="accent"></circle><circle fill="#000000" cx="60.047" cy="79.152" r="1.2" data-fill-palette-color="accent"></circle><circle fill="#000000" cx="56.005" cy="58.939" r="1.2" data-fill-palette-color="accent"></circle><circle fill="#000000" cx="53.983" cy="60.96" r="1.2" data-fill-palette-color="accent"></circle><circle fill="#000000" cx="53.983" cy="56.918" r="1.2" data-fill-palette-color="accent"></circle><circle fill="#000000" cx="56.005" cy="54.897" r="1.2" data-fill-palette-color="accent"></circle><circle fill="#000000" cx="56.005" cy="67.024" r="1.2" data-fill-palette-color="accent"></circle><circle fill="#000000" cx="53.983" cy="69.045" r="1.2" data-fill-palette-color="accent"></circle><circle fill="#000000" cx="53.983" cy="65.003" r="1.2" data-fill-palette-color="accent"></circle><circle fill="#000000" cx="56.005" cy="62.982" r="1.2" data-fill-palette-color="accent"></circle><circle fill="#000000" cx="56.005" cy="75.109" r="1.2" data-fill-palette-color="accent"></circle><circle fill="#000000" cx="53.983" cy="77.131" r="1.2" data-fill-palette-color="accent"></circle><circle fill="#000000" cx="53.983" cy="73.088" r="1.2" data-fill-palette-color="accent"></circle><circle fill="#000000" cx="56.005" cy="71.067" r="1.2" data-fill-palette-color="accent"></circle><circle fill="#000000" cx="56.005" cy="83.194" r="1.2" data-fill-palette-color="accent"></circle><circle fill="#000000" cx="53.983" cy="81.173" r="1.2" data-fill-palette-color="accent"></circle><circle fill="#000000" cx="56.005" cy="79.152" r="1.2" data-fill-palette-color="accent"></circle><path fill="#000000" d="M65.774 45.538L65.762 45.419C65.761 45.411 65.761 45.402 65.759 45.394A2 2 0 0 0 65.736 45.252L65.709 45.137 65.703 45.113 65.671 45.008 65.661 44.977 65.624 44.88 65.61 44.844C65.598 44.815 65.584 44.786 65.571 44.758L65.551 44.715 65.51 44.638 65.484 44.59C65.471 44.567 65.456 44.545 65.442 44.522L65.409 44.469C65.396 44.449 65.381 44.43 65.367 44.41L65.326 44.353 65.285 44.302 65.236 44.242 65.197 44.2 65.138 44.137 65.101 44.102 65.033 44.038 64.998 44.009 64.921 43.946 64.889 43.923 64.774 43.843 64.687 43.789 64.677 43.784 64.674 43.782 51.105 36.023A2.19 2.19 0 0 0 48.932 36.023L35.363 43.778 35.354 43.783 35.351 43.785 35.318 43.805 35.23 43.86 35.192 43.887C35.165 43.906 35.138 43.924 35.112 43.944L35.073 43.976C35.049 43.996 35.024 44.015 35.001 44.036L34.962 44.073 34.897 44.134 34.858 44.175C34.838 44.196 34.818 44.216 34.8 44.238L34.763 44.283 34.71 44.348 34.676 44.396C34.66 44.418 34.643 44.441 34.628 44.464L34.597 44.514 34.553 44.584 34.525 44.635C34.512 44.659 34.498 44.684 34.486 44.709 34.477 44.726 34.47 44.744 34.462 44.762L34.427 44.839 34.406 44.894C34.396 44.92 34.385 44.946 34.377 44.972L34.36 45.027 34.335 45.108 34.322 45.164 34.302 45.248 34.292 45.308 34.278 45.39 34.271 45.462C34.269 45.486 34.265 45.51 34.264 45.534 34.261 45.571 34.261 45.608 34.26 45.644L34.259 45.679V82.997A2.19 2.19 0 0 0 35.361 84.897L48.93 92.66A2.19 2.19 0 0 0 51.116 92.654C51.144 92.638 51.171 92.62 51.199 92.602L64.674 84.893A2.19 2.19 0 0 0 65.776 82.993V45.683A1 1 0 0 0 65.774 45.538M52.246 49.644H47.795L46.735 49.038H53.307zM55.783 47.623H44.26L43.2 47.017H56.844zM49.137 40.953H50.904L51.964 41.559H48.076zM45.6 42.974H54.438L55.498 43.58H44.539zM42.063 44.995H57.927V44.969L59.033 45.602H41.003zM38.642 49.455L47.832 54.711V86.985L38.642 81.727zM61.4 53.887V55.907A1.21 1.21 0 0 0 61.4 57.929V59.949A1.21 1.21 0 0 0 61.4 61.971V63.991A1.21 1.21 0 0 0 61.4 66.013V68.033A1.21 1.21 0 0 0 61.4 70.055V72.075A1.21 1.21 0 0 0 61.4 74.097V76.117A1.21 1.21 0 0 0 61.4 78.139V80.159A1.21 1.21 0 0 0 61.097 81.894L60.658 82.145A1.212 1.212 0 0 0 58.835 83.189L55.193 85.273C55.194 85.253 55.196 85.234 55.196 85.214A1.213 1.213 0 1 0 53.42 86.288L52.962 86.55A1.22 1.22 0 0 0 52.211 86.048V84.38A1.213 1.213 0 0 0 52.211 82.006V80.338A1.214 1.214 0 0 0 52.211 77.964V76.296A1.214 1.214 0 0 0 52.211 73.922V72.254A1.214 1.214 0 0 0 52.211 69.88V68.212A1.214 1.214 0 0 0 52.211 65.838V64.17A1.214 1.214 0 0 0 52.211 61.796V60.128A1.214 1.214 0 0 0 52.211 57.754V56.086A1.214 1.214 0 0 0 52.994 54.264L53.486 53.983A1.213 1.213 0 0 0 55.188 53.01L58.837 50.924A1.211 1.211 0 0 0 61.259 50.856C61.259 50.436 61.045 50.065 60.72 49.848L61.399 49.46V51.867A1.21 1.21 0 0 0 61.4 53.887" data-fill-palette-color="accent"></path><path fill="#000000" d="M100 25.791A2.19 2.19 0 0 0 98.897 23.89L85.328 16.131A2.19 2.19 0 0 0 83.155 16.131L69.586 23.886A2.19 2.19 0 0 0 68.483 25.787V82.999C68.483 83.784 68.904 84.51 69.585 84.9L83.154 92.663A2.19 2.19 0 0 0 85.34 92.656L85.4 92.619 98.88 85.074A2.19 2.19 0 0 0 100 83.163V25.977L99.997 25.884zM86.469 29.751H82.016L80.956 29.145H87.53zM90.006 27.73H78.482L77.422 27.124H91.068zM83.358 21.059H85.125L86.185 21.665H82.297zM79.821 23.081H88.659L89.719 23.687H78.76zM76.284 25.102H92.148V25.076L93.254 25.709H75.224zM72.863 29.62L82.052 34.991V86.985L72.863 81.727zM95.621 81.879L95.094 82.174C95.409 81.958 95.617 81.596 95.621 81.185zM95.621 32.651A1.213 1.213 0 1 0 95.621 32.675V33.783A1.21 1.21 0 0 0 95.621 35.585V36.693A1.213 1.213 0 1 0 95.621 36.717V37.825A1.21 1.21 0 0 0 95.621 39.629V40.737A1.213 1.213 0 1 0 95.621 40.761V41.869A1.21 1.21 0 0 0 95.621 43.671V44.779A1.213 1.213 0 1 0 95.621 44.803V45.911A1.208 1.208 0 0 0 95.621 47.714V48.822A1.213 1.213 0 1 0 95.621 48.846V49.954A1.208 1.208 0 0 0 95.621 51.757V52.865A1.213 1.213 0 1 0 95.621 52.889V53.997A1.21 1.21 0 0 0 95.621 55.799V56.907A1.213 1.213 0 1 0 95.621 56.931V58.039A1.21 1.21 0 0 0 95.621 59.842V60.95A1.213 1.213 0 1 0 95.621 60.974V62.082A1.21 1.21 0 0 0 95.621 63.884V64.992A1.213 1.213 0 1 0 95.621 65.016V66.124A1.21 1.21 0 0 0 95.621 67.927V69.035A1.213 1.213 0 1 0 95.621 69.059V70.167A1.21 1.21 0 0 0 95.621 71.969V73.077A1.213 1.213 0 1 0 95.621 73.101V74.209A1.208 1.208 0 0 0 95.621 76.012V77.12A1.213 1.213 0 1 0 95.621 77.144V78.252A1.208 1.208 0 0 0 95.621 80.055V81.163A1.213 1.213 0 1 0 94.908 82.28L93.586 83.02A1.212 1.212 0 1 0 91.609 84.127L91.211 84.35A1.213 1.213 0 0 0 89.183 85.485L88.195 86.038C87.872 86.078 87.589 86.244 87.396 86.485L86.43 87.025V86.426A1.213 1.213 0 0 0 86.43 84.012V82.384A1.213 1.213 0 0 0 86.43 79.97V78.342A1.213 1.213 0 0 0 86.43 75.928V74.3A1.213 1.213 0 0 0 86.43 71.886V70.258A1.213 1.213 0 0 0 86.43 67.844V66.21A1.213 1.213 0 0 0 86.43 63.796V62.168A1.213 1.213 0 0 0 86.43 59.754V58.126A1.213 1.213 0 0 0 86.43 55.712V54.084A1.213 1.213 0 0 0 86.43 51.67V50.04A1.213 1.213 0 0 0 86.43 47.626V45.998A1.213 1.213 0 0 0 86.43 43.584V41.956A1.213 1.213 0 0 0 86.43 39.542V37.914A1.213 1.213 0 0 0 86.43 35.5V35.003L87.135 34.6C87.133 34.629 87.131 34.657 87.131 34.686A1.213 1.213 0 1 0 88.884 33.601L89.354 33.333A1.212 1.212 0 0 0 91.455 32.133L92.032 31.803A1.21 1.21 0 0 0 93.566 30.926L95.591 29.769A1.21 1.21 0 0 0 95.62 31.545z" data-fill-palette-color="accent"></path><circle fill="#000000" cx="92.387" cy="34.684" r="1.2" data-fill-palette-color="accent"></circle><circle fill="#000000" cx="90.366" cy="36.705" r="1.2" data-fill-palette-color="accent"></circle><circle fill="#000000" cx="92.387" cy="42.769" r="1.2" data-fill-palette-color="accent"></circle><circle fill="#000000" cx="90.366" cy="44.79" r="1.2" data-fill-palette-color="accent"></circle><circle fill="#000000" cx="90.366" cy="40.748" r="1.2" data-fill-palette-color="accent"></circle><circle fill="#000000" cx="92.387" cy="38.727" r="1.2" data-fill-palette-color="accent"></circle><circle fill="#000000" cx="92.387" cy="50.854" r="1.2" data-fill-palette-color="accent"></circle><circle fill="#000000" cx="90.366" cy="52.875" r="1.2" data-fill-palette-color="accent"></circle><circle fill="#000000" cx="90.366" cy="48.833" r="1.2" data-fill-palette-color="accent"></circle><circle fill="#000000" cx="92.387" cy="46.812" r="1.2" data-fill-palette-color="accent"></circle><circle fill="#000000" cx="92.387" cy="58.939" r="1.2" data-fill-palette-color="accent"></circle><circle fill="#000000" cx="90.366" cy="60.96" r="1.2" data-fill-palette-color="accent"></circle><circle fill="#000000" cx="90.366" cy="56.918" r="1.2" data-fill-palette-color="accent"></circle><circle fill="#000000" cx="92.387" cy="54.897" r="1.2" data-fill-palette-color="accent"></circle><circle fill="#000000" cx="92.387" cy="67.024" r="1.2" data-fill-palette-color="accent"></circle><circle fill="#000000" cx="90.366" cy="69.045" r="1.2" data-fill-palette-color="accent"></circle><circle fill="#000000" cx="90.366" cy="65.003" r="1.2" data-fill-palette-color="accent"></circle><circle fill="#000000" cx="92.387" cy="62.982" r="1.2" data-fill-palette-color="accent"></circle><circle fill="#000000" cx="92.387" cy="75.109" r="1.2" data-fill-palette-color="accent"></circle><circle fill="#000000" cx="90.366" cy="77.131" r="1.2" data-fill-palette-color="accent"></circle><circle fill="#000000" cx="90.366" cy="73.088" r="1.2" data-fill-palette-color="accent"></circle><circle fill="#000000" cx="92.387" cy="71.067" r="1.2" data-fill-palette-color="accent"></circle><circle fill="#000000" cx="90.366" cy="81.173" r="1.2" data-fill-palette-color="accent"></circle><circle fill="#000000" cx="92.387" cy="79.152" r="1.2" data-fill-palette-color="accent"></circle><circle fill="#000000" cx="88.345" cy="42.769" r="1.2" data-fill-palette-color="accent"></circle><circle fill="#000000" cx="88.345" cy="38.727" r="1.2" data-fill-palette-color="accent"></circle><circle fill="#000000" cx="88.345" cy="50.854" r="1.2" data-fill-palette-color="accent"></circle><circle fill="#000000" cx="88.345" cy="46.812" r="1.2" data-fill-palette-color="accent"></circle><circle fill="#000000" cx="88.345" cy="58.939" r="1.2" data-fill-palette-color="accent"></circle><circle fill="#000000" cx="88.345" cy="54.897" r="1.2" data-fill-palette-color="accent"></circle><circle fill="#000000" cx="88.345" cy="67.024" r="1.2" data-fill-palette-color="accent"></circle><circle fill="#000000" cx="88.345" cy="62.982" r="1.2" data-fill-palette-color="accent"></circle><circle fill="#000000" cx="88.345" cy="75.109" r="1.2" data-fill-palette-color="accent"></circle><circle fill="#000000" cx="88.345" cy="71.067" r="1.2" data-fill-palette-color="accent"></circle><circle fill="#000000" cx="88.345" cy="83.194" r="1.2" data-fill-palette-color="accent"></circle><circle fill="#000000" cx="88.345" cy="79.152" r="1.2" data-fill-palette-color="accent"></circle></svg></g></svg></g></svg></g><defs></defs></svg><rect width="395.52" height="81.48666590376956" fill="none" stroke="none" visibility="hidden"></rect></g></svg></g></svg>